<svg width="51" height="51" viewBox="0 0 51 51" fill="none" xmlns="http://www.w3.org/2000/svg">
<rect x="0.5" y="0.5" width="50" height="50" rx="25" stroke="#8F8F8F"/>
<path d="M15.148 25.8101C20.3947 23.5241 23.8937 22.0168 25.645 21.2881C30.644 19.2091 31.682 18.8481 32.359 18.8361C32.509 18.8331 32.841 18.8701 33.057 19.0461C33.239 19.1931 33.289 19.3931 33.313 19.5331C33.337 19.6731 33.367 19.9921 33.343 20.2411C33.073 23.0881 31.9 29.9951 31.303 33.1831C31.051 34.5311 30.555 34.9831 30.073 35.0281C29.028 35.1241 28.235 34.3381 27.223 33.6741C25.638 32.6351 24.743 31.9881 23.205 30.9751C21.428 29.8041 22.58 29.1601 23.593 28.1081C23.858 27.8331 28.463 23.6441 28.553 23.2641C28.563 23.2161 28.574 23.0391 28.469 22.9461C28.364 22.8521 28.209 22.8841 28.096 22.9101C27.9367 22.9461 25.406 24.6188 20.504 27.9281C19.7847 28.4214 19.134 28.6618 18.552 28.6491C17.909 28.6351 16.672 28.2861 15.754 27.9871C14.626 27.6201 13.73 27.4271 13.808 26.8041C13.8487 26.4801 14.2953 26.1488 15.148 25.8101Z" fill="#CF1919"/>
</svg>
